<svg width="104.469482" height="12.937500" viewBox="0 0 104.469 12.9375" fill="none" xmlns="http://www.w3.org/2000/svg" xmlns:xlink="http://www.w3.org/1999/xlink">
	<defs/>
	<path id="Button" d="M72.87 1.22C72.87 1.89 72.27 2.44 71.55 2.44C70.83 2.44 70.24 1.89 70.24 1.22C70.24 0.55 70.83 0 71.55 0C72.27 0 72.87 0.55 72.87 1.22ZM9.04 4.01L6.68 4.01C6.59 3.09 5.87 2.56 4.69 2.56C3.49 2.56 2.82 3.11 2.82 3.86C2.81 4.69 3.66 5.07 4.67 5.3L5.71 5.55C7.73 6.01 9.19 7.03 9.2 8.97C9.19 11.1 7.52 12.46 4.68 12.46C1.86 12.46 0.06 11.16 0 8.64L2.37 8.64C2.46 9.81 3.37 10.4 4.66 10.4C5.91 10.4 6.71 9.82 6.72 8.97C6.71 8.18 6.01 7.82 4.74 7.51L3.47 7.19C1.51 6.72 0.3 5.74 0.3 4.02C0.29 1.91 2.16 0.5 4.71 0.5C7.3 0.5 9.01 1.93 9.04 4.01ZM43.5 6.47C43.5 10.1 41.35 12.3 37.81 12.3L33.68 12.3L33.68 0.66L37.84 0.66C41.35 0.66 43.5 2.84 43.5 6.47ZM74.69 0.66L77.11 0.66L77.11 12.3L74.69 12.3L74.69 0.66ZM57.83 3.57L59.48 3.57L59.48 5.39L57.83 5.39L57.83 9.61C57.83 10.28 58.17 10.47 58.65 10.47C58.88 10.47 59.14 10.41 59.26 10.39L59.64 12.19C59.39 12.27 58.95 12.39 58.32 12.42C56.57 12.49 55.4 11.64 55.42 9.93L55.42 5.39L54.22 5.39L54.22 3.57L55.42 3.57L55.42 1.48L57.83 1.48L57.83 3.57ZM104.46 7.21L98.74 12.93L97.42 11.62L100.88 8.17L92.77 8.17L92.77 6.25L100.88 6.25L97.42 2.79L98.74 1.48L104.46 7.21ZM36.14 2.77L36.14 10.19L37.71 10.19C39.89 10.19 41.05 9.06 41.05 6.47C41.05 3.88 39.89 2.77 37.71 2.77L36.14 2.77ZM18.73 9.8C18.39 11.42 16.94 12.47 14.78 12.47C12.09 12.47 10.45 10.74 10.45 7.97C10.45 5.28 12.11 3.46 14.68 3.46C16.99 3.46 18.78 4.92 18.78 7.89L18.78 8.55L12.84 8.55L12.84 8.56C12.84 9.86 13.61 10.66 14.82 10.66C15.62 10.66 16.25 10.31 16.5 9.65L18.73 9.8ZM28.3 9.8C27.96 11.42 26.5 12.47 24.34 12.47C21.65 12.47 20.01 10.74 20.01 7.97C20.01 5.28 21.68 3.46 24.25 3.46C26.55 3.46 28.35 4.92 28.35 7.89L28.35 8.55L22.4 8.55L22.4 8.56C22.4 9.86 23.17 10.66 24.38 10.66C25.19 10.66 25.81 10.31 26.06 9.65L28.3 9.8ZM53.21 9.8C52.87 11.42 51.41 12.47 49.25 12.47C46.56 12.47 44.92 10.74 44.92 7.97C44.92 5.28 46.58 3.46 49.15 3.46C51.46 3.46 53.26 4.92 53.26 7.89L53.26 8.55L47.31 8.55L47.31 8.56C47.31 9.86 48.08 10.66 49.29 10.66C50.1 10.66 50.72 10.31 50.97 9.65L53.21 9.8ZM66.09 11.08C65.66 11.9 64.83 12.46 63.54 12.46C61.87 12.46 60.64 11.58 60.64 9.86C60.64 7.91 62.19 7.33 63.92 7.17C65.44 7.02 66.03 6.95 66.03 6.39L66.03 6.35C66.03 5.64 65.56 5.22 64.74 5.22C63.87 5.22 63.35 5.65 63.19 6.23L60.95 6.05C61.28 4.46 62.66 3.46 64.75 3.46C66.69 3.46 68.46 4.33 68.46 6.41L68.46 12.3L66.16 12.3L66.16 11.08L66.09 11.08ZM82.59 3.46C84.79 3.46 86.09 4.45 86.3 6.06L84.09 6.19C83.96 5.63 83.46 5.17 82.63 5.17C81.87 5.17 81.29 5.51 81.29 6.03C81.29 6.46 81.59 6.73 82.4 6.91L83.98 7.23C85.67 7.57 86.5 8.33 86.5 9.59C86.5 11.31 84.88 12.47 82.61 12.47C80.3 12.47 78.88 11.44 78.65 9.77L81.04 9.64C81.18 10.35 81.76 10.72 82.62 10.72C83.46 10.72 84.03 10.35 84.04 9.83C84.03 9.4 83.68 9.12 82.92 8.97L81.41 8.67C79.7 8.32 78.88 7.48 78.89 6.17C78.88 4.49 80.35 3.46 82.59 3.46ZM72.76 12.3L70.33 12.3L70.33 3.57L72.76 3.57L72.76 12.3ZM14.72 5.26C13.65 5.26 12.89 6.06 12.84 7.05L16.51 7.05C16.5 6.01 15.77 5.26 14.72 5.26ZM24.28 5.26C23.21 5.26 22.46 6.06 22.4 7.05L26.07 7.05C26.06 6.01 25.34 5.26 24.28 5.26ZM49.19 5.26C48.12 5.26 47.37 6.06 47.31 7.05L50.98 7.05C50.97 6.01 50.24 5.26 49.19 5.26ZM62.96 9.78C62.96 10.44 63.49 10.79 64.23 10.79C65.3 10.79 66.05 10.09 66.05 9.17L66.05 8.25C65.76 8.44 64.9 8.57 64.37 8.64C63.52 8.76 62.96 9.1 62.96 9.78Z" fill="#FFFFFF" fill-opacity="1.000000" fill-rule="evenodd"/>
</svg>
