<svg width="158.447754" height="15.472656" viewBox="0 0 158.448 15.4727" fill="none" xmlns="http://www.w3.org/2000/svg" xmlns:xlink="http://www.w3.org/1999/xlink">
	<defs/>
	<path id="See Open Position -&gt;" d="M110.15 1.12C110.15 1.73 109.62 2.23 108.97 2.23C108.31 2.23 107.78 1.73 107.78 1.12C107.78 0.5 108.31 0 108.97 0C109.62 0 110.15 0.5 110.15 1.12ZM120.4 1.12C120.4 1.73 119.87 2.23 119.22 2.23C118.56 2.23 118.03 1.73 118.03 1.12C118.03 0.5 118.56 0 119.22 0C119.87 0 120.4 0.5 120.4 1.12ZM8.77 3.76L6.74 3.76C6.63 2.77 5.8 2.18 4.55 2.18C3.23 2.18 2.44 2.82 2.44 3.7C2.43 4.67 3.46 5.07 4.42 5.3L5.51 5.57C7.26 5.99 8.92 6.91 8.93 8.93C8.92 10.98 7.3 12.37 4.51 12.37C1.8 12.37 0.08 11.07 0 8.76L2.07 8.76C2.16 9.98 3.18 10.57 4.5 10.57C5.87 10.57 6.82 9.91 6.82 8.91C6.82 8.01 5.98 7.62 4.73 7.3L3.41 6.96C1.49 6.46 0.3 5.5 0.3 3.83C0.3 1.77 2.13 0.4 4.58 0.4C7.05 0.4 8.73 1.79 8.77 3.76ZM38.79 0.4C41.84 0.4 44.14 2.62 44.14 6.38C44.14 10.14 41.84 12.35 38.79 12.35C35.73 12.35 33.44 10.13 33.44 6.38C33.44 2.62 35.73 0.4 38.79 0.4ZM81.45 12.19L79.34 12.19L79.34 0.56L83.71 0.56C86.38 0.56 87.81 2.19 87.81 4.41C87.81 6.65 86.37 8.26 83.68 8.26L81.45 8.26L81.45 12.19ZM114.74 3.47L116.46 3.47L116.46 5.06L114.74 5.06L114.74 9.57C114.74 10.4 115.16 10.58 115.67 10.58C115.93 10.58 116.16 10.53 116.27 10.5L116.62 12.11C116.4 12.18 116 12.3 115.41 12.32C113.86 12.36 112.67 11.55 112.68 9.91L112.68 5.06L111.45 5.06L111.45 3.47L112.68 3.47L112.68 1.38L114.74 1.38L114.74 3.47ZM158.44 7.1L152.94 12.62L151.76 11.46L155.27 7.95L146.75 7.95L146.75 6.26L155.27 6.26L151.76 2.76L152.94 1.59L158.44 7.1ZM38.79 10.46C40.69 10.46 42.02 9.02 42.02 6.38C42.02 3.73 40.69 2.29 38.79 2.29C36.9 2.29 35.57 3.73 35.57 6.38C35.57 9.02 36.9 10.46 38.79 10.46ZM81.45 2.32L81.45 6.53L83.39 6.53C84.96 6.53 85.66 5.65 85.66 4.41C85.66 3.17 84.96 2.32 83.38 2.32L81.45 2.32ZM18.37 9.85C18.01 11.37 16.61 12.37 14.58 12.37C11.94 12.37 10.34 10.62 10.34 7.88C10.34 5.19 11.97 3.35 14.47 3.35C16.62 3.35 18.46 4.7 18.46 7.76L18.46 8.39L12.38 8.39C12.39 9.89 13.28 10.76 14.6 10.76C15.49 10.76 16.17 10.38 16.45 9.64L18.37 9.85ZM27.85 9.85C27.49 11.37 26.09 12.37 24.06 12.37C21.43 12.37 19.82 10.62 19.82 7.88C19.82 5.19 21.45 3.35 23.95 3.35C26.1 3.35 27.94 4.7 27.94 7.76L27.94 8.39L21.86 8.39C21.88 9.89 22.76 10.76 24.09 10.76C24.97 10.76 25.65 10.38 25.93 9.64L27.85 9.85ZM48.1 15.47L46.05 15.47L46.05 3.47L48.07 3.47L48.07 4.91L48.19 4.91C48.5 4.28 49.14 3.35 50.68 3.35C52.7 3.35 54.29 4.93 54.29 7.84C54.29 10.72 52.74 12.35 50.69 12.35C49.19 12.35 48.51 11.46 48.19 10.82L48.1 10.82L48.1 15.47ZM63.7 9.85C63.34 11.37 61.94 12.37 59.91 12.37C57.27 12.37 55.67 10.62 55.67 7.88C55.67 5.19 57.3 3.35 59.8 3.35C61.95 3.35 63.79 4.7 63.79 7.76L63.79 8.39L57.71 8.39C57.72 9.89 58.61 10.76 59.93 10.76C60.82 10.76 61.5 10.38 61.78 9.64L63.7 9.85ZM69.43 5.09C68.34 5.09 67.58 5.82 67.58 7.08L67.58 12.19L65.53 12.19L65.53 3.47L67.49 3.47L67.49 4.95L67.59 4.95C67.99 3.98 68.89 3.35 70.19 3.35C71.99 3.35 73.19 4.55 73.18 6.64L73.18 12.19L71.13 12.19L71.13 6.96C71.13 5.79 70.49 5.09 69.43 5.09ZM97.41 7.87C97.41 10.57 95.79 12.37 93.23 12.37C90.67 12.37 89.05 10.57 89.05 7.87C89.05 5.16 90.67 3.35 93.23 3.35C95.79 3.35 97.41 5.16 97.41 7.87ZM102.53 3.35C104.58 3.35 105.76 4.3 106.05 5.77L104.17 5.98C104.01 5.41 103.51 4.89 102.57 4.89C101.71 4.89 101.05 5.3 101.06 5.89C101.05 6.39 101.41 6.7 102.29 6.9L103.78 7.22C105.43 7.57 106.23 8.33 106.23 9.58C106.23 11.23 104.69 12.37 102.51 12.37C100.37 12.37 99.02 11.42 98.76 9.82L100.77 9.62C100.94 10.41 101.56 10.82 102.5 10.82C103.48 10.82 104.13 10.37 104.13 9.77C104.13 9.27 103.75 8.95 102.95 8.77L101.46 8.46C99.78 8.12 99 7.27 99.01 6C99 4.39 100.43 3.35 102.53 3.35ZM130.34 7.87C130.34 10.57 128.72 12.37 126.16 12.37C123.61 12.37 121.98 10.57 121.98 7.87C121.98 5.16 123.61 3.35 126.16 3.35C128.72 3.35 130.34 5.16 130.34 7.87ZM135.99 5.09C134.9 5.09 134.14 5.82 134.14 7.08L134.14 12.19L132.08 12.19L132.08 3.47L134.05 3.47L134.05 4.95L134.15 4.95C134.55 3.98 135.45 3.35 136.75 3.35C138.55 3.35 139.75 4.55 139.74 6.64L139.74 12.19L137.68 12.19L137.68 6.96C137.68 5.79 137.05 5.09 135.99 5.09ZM109.99 12.19L107.94 12.19L107.94 3.47L109.99 3.47L109.99 12.19ZM120.24 12.19L118.19 12.19L118.19 3.47L120.24 3.47L120.24 12.19ZM14.49 4.96C13.27 4.96 12.44 5.89 12.38 7.01L16.48 7.01C16.47 5.82 15.68 4.96 14.49 4.96ZM23.98 4.96C22.75 4.96 21.93 5.89 21.86 7.01L25.97 7.01C25.95 5.82 25.16 4.96 23.98 4.96ZM59.82 4.96C58.6 4.96 57.77 5.89 57.71 7.01L61.81 7.01C61.8 5.82 61.01 4.96 59.82 4.96ZM91.13 7.86C91.13 9.46 91.83 10.72 93.24 10.72C94.63 10.72 95.33 9.46 95.33 7.86C95.33 6.26 94.63 4.98 93.24 4.98C91.83 4.98 91.13 6.26 91.13 7.86ZM124.06 7.86C124.06 9.46 124.76 10.72 126.17 10.72C127.56 10.72 128.26 9.46 128.26 7.86C128.26 6.26 127.56 4.98 126.17 4.98C124.76 4.98 124.06 6.26 124.06 7.86ZM50.12 5.04C48.79 5.04 48.06 6.14 48.06 7.83C48.06 9.52 48.8 10.66 50.12 10.66C51.47 10.66 52.19 9.47 52.19 7.83C52.19 6.21 51.49 5.04 50.12 5.04Z" fill="#1D1E25" fill-opacity="1.000000" fill-rule="evenodd"/>
</svg>
